<?xml version="1.0" encoding="UTF-8"?>
<svg id="Ebene_1" xmlns="http://www.w3.org/2000/svg" version="1.1" viewBox="0 0 32 32">
  <!-- Generator: Adobe Illustrator 29.3.1, SVG Export Plug-In . SVG Version: 2.1.0 Build 151)  -->
  <defs>
    <style>
      .st0 {
        fill: #969;
      }
    </style>
  </defs>
  <path class="st0" d="M28,6v6c0,.6-.4,1-1,1h-6c-.6,0-1-.4-1-1s.4-1,1-1h3.6l-1.8-1.8c-1.9-1.9-4.4-2.9-7-2.9h0c-2.6,0-5.1,1-7,2.8-.4.4-1,.4-1.4,0-.4-.4-.4-1,0-1.4,4.7-4.6,12.2-4.6,16.9,0l1.8,1.8v-3.6c0-.6.4-1,1-1s1,.4,1,1ZM23.3,22.9c-3.9,3.8-10.2,3.8-14.1,0l-1.8-1.8h3.6c.6,0,1-.4,1-1s-.4-1-1-1h-6c-.6,0-1,.4-1,1v6c0,.6.4,1,1,1s1-.4,1-1v-3.6l1.8,1.8c2.2,2.2,5.3,3.5,8.4,3.5h0c3.1,0,6.1-1.2,8.4-3.4.4-.4.4-1,0-1.4-.4-.4-1-.4-1.4,0h0Z"/>
</svg>