<?xml version="1.0" encoding="UTF-8"?>
<svg id="Ebene_1" xmlns="http://www.w3.org/2000/svg" version="1.1" viewBox="0 0 32 32">
  <!-- Generator: Adobe Illustrator 29.3.1, SVG Export Plug-In . SVG Version: 2.1.0 Build 151)  -->
  <defs>
    <style>
      .st0 {
        fill: #969;
      }
    </style>
  </defs>
  <path class="st0" d="M16,3c-.6,0-1,.4-1,1v7c0,.6.4,1,1,1,2.2,0,4,1.8,4,4s-1.8,4-4,4-4-1.8-4-4c0-.7.2-1.4.5-2,.3-.5.1-1.1-.4-1.4,0,0,0,0,0,0l-6.1-3.5c-.5-.3-1.1-.1-1.4.4,0,0,0,0,0,0-3.6,6.2-1.5,14.2,4.8,17.8,6.2,3.6,14.2,1.5,17.8-4.8s1.5-14.2-4.8-17.8c-2-1.1-4.2-1.7-6.5-1.7ZM6,11.4l4.4,2.5c-.2.7-.4,1.4-.4,2.1,0,.2,0,.4,0,.6l-4.9,1.3c-.4-2.2,0-4.5.9-6.5ZM5.7,19.8l4.9-1.3c.8,1.8,2.5,3.1,4.4,3.4v5c-4.2-.4-7.9-3.2-9.3-7.2ZM17,27v-5c3.3-.6,5.5-3.7,4.9-6.9-.4-2.5-2.4-4.5-4.9-4.9v-5c6,.6,10.5,5.9,10,12-.5,5.3-4.7,9.5-10,10Z"/>
</svg>