<?xml version="1.0" encoding="UTF-8"?>
<svg id="Ebene_1" xmlns="http://www.w3.org/2000/svg" version="1.1" viewBox="0 0 32 32">
  <!-- Generator: Adobe Illustrator 29.3.1, SVG Export Plug-In . SVG Version: 2.1.0 Build 151)  -->
  <defs>
    <style>
      .st0 {
        fill: #969;
      }
    </style>
  </defs>
  <path class="st0" d="M28,16c0,.6-.4,1-1,1h-11c-.6,0-1-.4-1-1s.4-1,1-1h11c.6,0,1,.4,1,1ZM16,9h11c.6,0,1-.4,1-1s-.4-1-1-1h-11c-.6,0-1,.4-1,1s.4,1,1,1ZM27,23h-11c-.6,0-1,.4-1,1s.4,1,1,1h11c.6,0,1-.4,1-1s-.4-1-1-1ZM10.3,5.3l-3.3,3.3-1.3-1.3c-.4-.4-1-.4-1.4,0-.4.4-.4,1,0,1.4h0l2,2c.4.4,1,.4,1.4,0,0,0,0,0,0,0l4-4c.4-.4.4-1,0-1.4-.4-.4-1-.4-1.4,0ZM10.3,13.3l-3.3,3.3-1.3-1.3c-.4-.4-1-.4-1.4,0-.4.4-.4,1,0,1.4h0l2,2c.4.4,1,.4,1.4,0,0,0,0,0,0,0l4-4c.4-.4.4-1,0-1.4s-1-.4-1.4,0ZM10.3,21.3l-3.3,3.3-1.3-1.3c-.4-.4-1-.4-1.4,0s-.4,1,0,1.4l2,2c.4.4,1,.4,1.4,0,0,0,0,0,0,0l4-4c.4-.4.4-1,0-1.4-.4-.4-1-.4-1.4,0h0Z"/>
</svg>