<?xml version="1.0" encoding="UTF-8"?>
<svg id="Ebene_1" xmlns="http://www.w3.org/2000/svg" version="1.1" viewBox="0 0 32 32">
  <!-- Generator: Adobe Illustrator 29.3.1, SVG Export Plug-In . SVG Version: 2.1.0 Build 151)  -->
  <defs>
    <style>
      .st0 {
        fill: #969;
      }
    </style>
  </defs>
  <path class="st0" d="M8,13.1V5c0-.6-.4-1-1-1s-1,.4-1,1v8.1c-2.1.5-3.4,2.7-2.9,4.9.4,1.4,1.5,2.5,2.9,2.9v6.1c0,.6.4,1,1,1s1-.4,1-1v-6.1c2.1-.5,3.4-2.7,2.9-4.9-.4-1.4-1.5-2.5-2.9-2.9ZM7,19c-1.1,0-2-.9-2-2s.9-2,2-2,2,.9,2,2-.9,2-2,2ZM17,7.1v-2.1c0-.6-.4-1-1-1s-1,.4-1,1v2.1c-2.1.5-3.4,2.7-2.9,4.9.4,1.4,1.5,2.5,2.9,2.9v12.1c0,.6.4,1,1,1s1-.4,1-1v-12.1c2.1-.5,3.4-2.7,2.9-4.9-.4-1.4-1.5-2.5-2.9-2.9ZM16,13c-1.1,0-2-.9-2-2s.9-2,2-2,2,.9,2,2-.9,2-2,2ZM29,21c0-1.8-1.2-3.4-3-3.9V5c0-.6-.4-1-1-1s-1,.4-1,1v12.1c-2.1.5-3.4,2.7-2.9,4.9.4,1.4,1.5,2.5,2.9,2.9v2.1c0,.6.4,1,1,1s1-.4,1-1v-2.1c1.8-.5,3-2.1,3-3.9ZM25,23c-1.1,0-2-.9-2-2s.9-2,2-2,2,.9,2,2-.9,2-2,2Z"/>
</svg>